<svg version="1.1" xmlns="http://www.w3.org/2000/svg" viewBox="400 400 1200 1000">
<path fill="rgb(43,126,11)" d="M 1407.45 699.075 C 1423.23 699.714 1427.74 706.198 1427.85 721.378 C 1428.01 745.211 1427.94 769.044 1427.93 792.877 L 1427.81 931.375 L 1427.94 1048.18 C 1427.96 1068.02 1428.05 1088.02 1427.89 1107.86 C 1427.85 1111.94 1427.19 1119.53 1425.6 1123 C 1423.89 1126.74 1419.46 1130.88 1415.97 1133.01 C 1388.53 1149.8 1360.66 1166.27 1332.96 1182.6 L 1198.59 1262.39 L 1123.57 1307.79 C 1112.27 1314.6 1092.36 1327.31 1081.01 1331.68 C 1073.9 1331.97 1062.26 1327.92 1061.25 1321.08 C 1058.21 1300.74 1059.87 1271 1059.89 1250.85 L 1059.9 1121.89 C 1059.89 1056.93 1059.82 991.961 1059.79 927.003 C 1059.85 912.806 1061.64 903.88 1074.51 895.893 C 1102.37 878.609 1130.62 861.998 1158.83 845.324 C 1204.22 817.951 1249.8 790.879 1295.56 764.112 L 1363.5 723.549 C 1372.91 717.898 1398.3 701.646 1407.45 699.075 z"/>
<path fill="rgb(119,188,35)" d="M 634.08 699.15 C 638.788 698.908 642.756 699.034 646.868 701.41 C 664.169 711.408 681.024 722.218 698.261 732.368 L 848.955 822.599 L 929.983 870.715 C 942.515 878.064 983.117 899.352 986.274 910.78 C 988.706 919.587 987.966 960.917 987.965 972.617 L 987.908 1067.05 L 987.937 1227.29 C 987.967 1254.98 988.076 1282.68 988 1310.37 C 987.966 1322.5 985.396 1326.59 973.866 1331.05 C 958.653 1332.18 933.929 1312.24 919.812 1304.16 C 894.421 1289.64 869.033 1274.11 843.899 1259.07 L 718.771 1184.47 C 690.495 1167.99 661.176 1152.29 633.701 1134.52 C 629.308 1131.68 623.875 1127.98 621.951 1122.87 C 617.674 1111.5 620.067 901.68 620.066 875.044 L 619.946 772.867 C 619.903 754.892 619.799 736.909 619.898 718.936 C 619.958 707.922 623.673 702.579 634.08 699.15 z"/>
<path fill="rgb(119,188,35)" d="M 1017.25 414.199 C 1037.89 412.694 1052.23 425.826 1069.6 435.98 L 1152.1 484.817 L 1280.7 560.538 C 1307.55 576.225 1334.32 591.859 1361.12 607.795 C 1370.31 613.256 1374.15 625.143 1367.41 634.506 C 1365.07 637.749 1354.55 644.359 1350.87 646.533 C 1320.17 664.666 1289.66 683.111 1258.97 701.257 L 1154.82 763.479 L 1078.74 808.788 C 1067.9 815.224 1041.06 832.836 1030.08 834.747 C 1009.9 836.209 1001.83 827.731 985.238 818.135 C 959.684 803.376 934.261 788.392 908.971 773.184 L 751.818 679.745 C 731.196 667.302 710.15 655.266 689.769 642.451 C 685.503 639.57 680.888 636.684 678.792 631.756 C 674.224 621.019 679.366 612.372 688.653 606.798 C 710.87 593.464 733.246 580.525 755.562 567.425 L 889.425 488.535 L 970.735 440.75 C 982.903 433.503 1004.6 418.806 1017.25 414.199 z"/>
</svg>